<?xml version="1.0" ?><!DOCTYPE svg  PUBLIC '-//W3C//DTD SVG 1.1//EN'  'http://www.w3.org/Graphics/SVG/1.1/DTD/svg11.dtd'><svg enable-background="new 0 0 200 200" height="200px" id="Layer_1" version="1.1" viewBox="0 0 200 200" width="200px" xml:space="preserve" xmlns="http://www.w3.org/2000/svg" xmlns:xlink="http://www.w3.org/1999/xlink"><g><path d="M47,94.251V26.249c0-0.459,0.111-1.358,0.882-2.118c0.76-0.771,1.656-0.882,2.118-0.882h85.001v8.001   c0,2.559,0.975,5.118,2.925,7.071c1.957,1.951,4.516,2.928,7.074,2.928h8v53.002h6.999V41.25v-0.001L135.001,16.25H50   c-2.563,0-5.122,0.98-7.067,2.932C40.983,21.131,40,23.69,40,26.249v68.002H47z" fill="#bababa"/><g><path d="M143.502,85.75c0,1.375-1.125,2.502-2.501,2.502H59c-1.373,0-2.498-1.127-2.498-2.502l0,0    c0-1.376,1.125-2.5,2.498-2.5h82.001C142.377,83.25,143.502,84.374,143.502,85.75L143.502,85.75z" fill="#bababa"/><path d="M143.502,72.25c0,1.374-1.125,2.5-2.501,2.5H59c-1.373,0-2.498-1.125-2.498-2.5l0,0    c0-1.375,1.125-2.5,2.498-2.5h82.001C142.377,69.75,143.502,70.875,143.502,72.25L143.502,72.25z" fill="#bababa"/><path d="M143.502,58.749c0,1.376-1.125,2.501-2.501,2.501H59c-1.373,0-2.498-1.125-2.498-2.501l0,0    c0-1.375,1.125-2.498,2.498-2.498h82.001C142.377,56.25,143.502,57.374,143.502,58.749L143.502,58.749z" fill="#bababa"/><path d="M127.5,45.25c0,1.375-1.122,2.5-2.502,2.5H59c-1.373,0-2.498-1.125-2.498-2.5l0,0    c0-1.375,1.125-2.5,2.498-2.5h65.999C126.378,42.75,127.5,43.875,127.5,45.25L127.5,45.25z" fill="#bababa"/></g><path d="M192.678,66.07c-4.881-4.879-11.278-7.322-17.68-7.322h-7.999v39.502c0,0.767-0.291,1.534-0.878,2.12   c-0.585,0.586-1.352,0.88-2.122,0.88H36.001c-0.771,0-1.538-0.294-2.125-0.88c-0.584-0.586-0.878-1.353-0.878-2.12V58.749h-7.996   c-6.401,0-12.798,2.442-17.68,7.322C2.441,70.956,0,77.353,0,83.75v68c0,1.79,0.685,3.582,2.05,4.949   c1.369,1.365,3.158,2.052,4.95,2.052H43V143.75c0-0.768,0.291-1.534,0.878-2.12c0.584-0.586,1.355-0.88,2.122-0.88h4v33.001   c0,2.559,0.975,5.116,2.928,7.071c1.95,1.949,4.512,2.928,7.071,2.928h79.998c2.563,0,5.121-0.979,7.075-2.928   c1.949-1.955,2.932-4.513,2.932-7.071V140.75H154c0.771,0,1.533,0.294,2.121,0.88s0.879,1.353,0.879,2.12v15.002h36.001   c1.792,0,3.583-0.687,4.949-2.052c1.369-1.367,2.05-3.159,2.05-4.949v-68C200,77.353,197.563,70.956,192.678,66.07z    M143.001,173.751c0,0.462-0.115,1.356-0.882,2.122c-0.76,0.763-1.656,0.878-2.122,0.878H60c-0.466,0-1.358-0.115-2.122-0.878   c-0.763-0.766-0.878-1.66-0.878-2.122V140.75h86.001V173.751z M186.001,145.749h-5c-1.372,0-2.501-1.123-2.501-2.498   c0-1.376,1.129-2.501,2.501-2.501h5c1.376,0,2.502,1.125,2.502,2.501C188.503,144.626,187.377,145.749,186.001,145.749z    M183.503,92.581c-2.767,0-5.003-2.236-5.003-5c0-2.76,2.236-5,5.003-5c2.76,0,5,2.24,5,5   C188.503,90.345,186.263,92.581,183.503,92.581z" fill="#b4b4b4"/></g></svg>