<?xml version="1.0" encoding="iso-8859-1"?>
<!-- Generator: Adobe Illustrator 19.1.0, SVG Export Plug-In . SVG Version: 6.00 Build 0)  -->
<svg version="1.1" id="Capa_1" xmlns="http://www.w3.org/2000/svg" xmlns:xlink="http://www.w3.org/1999/xlink" x="0px" y="0px"
	 viewBox="0 0 289.739 289.739" style="enable-background:new 0 0 289.739 289.739;" xml:space="preserve">
<g>
	<path d="M284.306,105.936C284.306,105.332,284.306,105.332,284.306,105.936C266.801,44.97,211.268,0.302,144.869,0.302
		C65.191,0.302,0,65.493,0,145.171c0,33.199,11.469,63.984,30.181,88.129l0,0c0.604,1.811,1.811,3.622,3.622,4.225
		c16.901,20.523,39.839,35.614,65.191,44.668h0.604c14.487,4.829,29.577,7.244,45.272,7.244
		c79.678,0,144.869-65.191,144.869-144.869C289.739,131.288,287.928,118.008,284.306,105.936z M146.077,138.531
		c-3.622-3.018-22.938-21.73-32.596-52.515c21.127-4.829,95.976-18.109,159.356,24.145c3.018,10.865,4.829,22.938,4.829,34.407
		c0,11.469-1.207,22.334-4.225,32.596C223.34,127.062,160.563,135.513,146.077,138.531z M96.58,198.893
		C83.3,181.388,36.821,113.783,64.588,40.744c0-0.604,0-0.604,0-1.207c10.262-7.847,21.73-13.883,33.803-18.712
		c-4.829,23.541-3.018,44.064,1.811,62.173c0,0.604,0,0.604,0,0.604s0,0.604,0.604,0.604c10.262,35.614,32.596,58.551,37.425,63.38
		C134.004,155.433,121.932,178.974,96.58,198.893z M266.801,92.656C201.61,56.439,130.986,69.718,110.463,74.547
		c-3.622-16.901-4.225-36.217,1.811-57.948c10.262-2.414,21.73-4.225,32.596-4.225C199.195,12.374,246.278,45.573,266.801,92.656z
		 M47.686,55.231c-16.901,71.227,24.749,132.797,39.235,150.905c-12.676,8.451-28.37,15.694-47.082,19.919
		c-16.901-22.334-27.163-50.101-27.163-80.282C12.072,110.161,25.352,78.773,47.686,55.231z M48.29,235.714
		c70.624-19.316,97.183-74.849,102.012-85.714c9.658-1.811,38.028-5.433,69.417,6.036c-7.243,18.109-41.046,95.372-117.706,114.085
		C80.885,263.481,62.777,251.409,48.29,235.714z M144.869,277.968c-7.244,0-13.883-0.604-21.127-1.811
		c68.813-26.559,99.598-95.976,106.841-114.688c13.28,6.64,26.559,15.694,39.235,29.577
		C251.107,241.751,202.213,277.968,144.869,277.968z"/>
</g>
<g>
</g>
<g>
</g>
<g>
</g>
<g>
</g>
<g>
</g>
<g>
</g>
<g>
</g>
<g>
</g>
<g>
</g>
<g>
</g>
<g>
</g>
<g>
</g>
<g>
</g>
<g>
</g>
<g>
</g>
</svg>
